<?xml version="1.0" encoding="utf-8"?>
<svg width="20" height="20" fill="rgb(119,136,153)"  viewBox="0 0 1792 1792" xmlns="http://www.w3.org/2000/svg"><path d="M 138.00,0.00
           C 138.00,0.00 138.00,408.00 138.00,408.00
             138.02,418.97 142.45,420.45 150.00,428.00
             150.00,428.00 172.00,450.00 172.00,450.00
             172.00,450.00 274.00,552.00 274.00,552.00
             274.00,552.00 683.00,961.00 683.00,961.00
             683.00,961.00 897.00,1175.00 897.00,1175.00
             897.00,1175.00 950.00,1228.00 950.00,1228.00
             950.00,1228.00 963.00,1241.00 963.00,1241.00
             964.67,1242.63 967.51,1245.80 970.00,1245.80
             972.69,1245.80 976.18,1241.80 978.00,1240.00
             978.00,1240.00 996.00,1222.00 996.00,1222.00
             996.00,1222.00 1069.00,1149.00 1069.00,1149.00
             1069.00,1149.00 1289.00,929.00 1289.00,929.00
             1289.00,929.00 1355.00,863.00 1355.00,863.00
             1355.00,863.00 1374.00,844.00 1374.00,844.00
             1375.94,842.06 1382.29,836.02 1383.26,834.00
             1385.59,829.12 1373.40,819.40 1370.00,816.00
             1370.00,816.00 1319.00,765.00 1319.00,765.00
             1319.00,765.00 1104.00,550.00 1104.00,550.00
             1104.00,550.00 691.00,137.00 691.00,137.00
             691.00,137.00 588.00,34.00 588.00,34.00
             588.00,34.00 566.00,12.00 566.00,12.00
             558.45,4.45 556.97,0.02 546.00,0.00
             546.00,0.00 138.00,0.00 138.00,0.00 Z
           M 266.00,256.00
           C 266.00,256.00 394.00,256.00 394.00,256.00
             394.00,256.00 394.00,128.00 394.00,128.00
             394.00,128.00 494.00,128.00 494.00,128.00
             496.09,128.00 499.06,127.88 501.00,128.60
             504.85,130.02 512.74,138.74 516.00,142.00
             516.00,142.00 553.00,179.00 553.00,179.00
             553.00,179.00 582.00,208.00 582.00,208.00
             584.48,210.48 591.60,216.26 590.66,220.00
             590.05,222.47 584.01,227.99 582.00,230.00
             582.00,230.00 558.00,254.00 558.00,254.00
             558.00,254.00 472.00,340.00 472.00,340.00
             472.00,340.00 387.00,425.00 387.00,425.00
             387.00,425.00 366.00,446.00 366.00,446.00
             364.04,447.95 359.84,452.80 357.00,452.80
             353.93,452.80 348.21,446.21 346.00,444.00
             346.00,444.00 318.00,416.00 318.00,416.00
             318.00,416.00 280.00,378.00 280.00,378.00
             276.74,374.74 268.02,366.85 266.60,363.00
             265.88,361.06 266.00,358.09 266.00,356.00
             266.00,356.00 266.00,256.00 266.00,256.00 Z
           M 452.00,490.32
           C 467.71,488.60 472.32,493.32 483.00,504.00
             483.00,504.00 497.00,518.00 497.00,518.00
             497.00,518.00 586.00,607.00 586.00,607.00
             586.00,607.00 915.00,936.00 915.00,936.00
             915.00,936.00 996.00,1017.00 996.00,1017.00
             996.00,1017.00 1009.00,1030.00 1009.00,1030.00
             1016.61,1037.61 1023.71,1043.45 1023.99,1055.00
             1024.13,1060.88 1023.42,1067.15 1019.44,1071.81
             1011.91,1080.64 995.67,1079.39 987.00,1073.21
             987.00,1073.21 957.00,1044.00 957.00,1044.00
             957.00,1044.00 899.00,986.00 899.00,986.00
             899.00,986.00 548.00,635.00 548.00,635.00
             548.00,635.00 479.00,566.00 479.00,566.00
             479.00,566.00 444.09,531.00 444.09,531.00
             432.05,517.88 431.61,494.95 452.00,490.32 Z
           M 1449.00,898.34
           C 1444.32,900.89 1440.76,905.24 1437.00,909.00
             1437.00,909.00 1417.00,929.00 1417.00,929.00
             1417.00,929.00 1352.00,994.00 1352.00,994.00
             1352.00,994.00 1139.00,1207.00 1139.00,1207.00
             1139.00,1207.00 1064.00,1282.00 1064.00,1282.00
             1064.00,1282.00 1044.00,1302.00 1044.00,1302.00
             1042.12,1303.88 1036.93,1308.63 1036.34,1311.00
             1035.32,1315.05 1046.09,1324.09 1049.00,1327.00
             1049.00,1327.00 1091.00,1369.00 1091.00,1369.00
             1091.00,1369.00 1151.00,1428.99 1151.00,1428.99
             1151.00,1428.99 1171.00,1448.00 1171.00,1448.00
             1171.00,1448.00 1212.00,1488.33 1212.00,1488.33
             1233.24,1505.22 1259.82,1514.68 1287.00,1515.00
             1315.60,1515.33 1342.99,1507.34 1366.00,1490.11
             1378.66,1480.63 1398.93,1459.07 1411.00,1447.00
             1411.00,1447.00 1433.00,1425.99 1433.00,1425.99
             1433.00,1425.99 1476.00,1383.00 1476.00,1383.00
             1476.00,1383.00 1535.00,1324.00 1535.00,1324.00
             1535.00,1324.00 1590.00,1269.00 1590.00,1269.00
             1601.26,1257.74 1617.97,1242.20 1627.11,1230.00
             1644.61,1206.63 1653.14,1179.10 1653.00,1150.00
             1652.92,1132.24 1647.66,1108.60 1639.14,1093.00
             1627.54,1071.78 1617.70,1063.70 1601.00,1047.00
             1601.00,1047.00 1556.00,1002.00 1556.00,1002.00
             1556.00,1002.00 1478.00,924.00 1478.00,924.00
             1478.00,924.00 1459.00,905.00 1459.00,905.00
             1455.71,901.71 1453.79,898.55 1449.00,898.34 Z"/></svg>
